<svg width="29" height="28" viewBox="0 0 29 28" fill="none" xmlns="http://www.w3.org/2000/svg">
<path d="M14.0773 2.33325C14.1014 2.35914 14.1248 2.38592 14.1499 2.4109C16.3951 4.65662 18.6406 6.90215 20.886 9.14768C20.9434 9.20502 20.9427 9.26305 20.884 9.32177C20.0924 10.1133 19.301 10.9049 18.5093 11.6963C18.4863 11.7193 18.4669 11.7469 18.4353 11.7615C18.4021 11.7453 18.381 11.7154 18.356 11.6905C16.9548 10.2897 15.5538 8.88857 14.1528 7.4875C14.0996 7.43436 14.0461 7.43475 13.9922 7.48867C12.5912 8.88974 11.1901 10.2909 9.78914 11.692C9.73803 11.7431 9.68671 11.7429 9.63518 11.6914C8.84159 10.8977 8.04799 10.104 7.2543 9.31044C7.24163 9.29777 7.23021 9.2833 7.21601 9.2727C7.17638 9.24295 7.18123 9.21607 7.21781 9.18821C7.22959 9.17922 7.2392 9.16736 7.24981 9.15676C9.49929 6.90664 11.7489 4.6568 13.998 2.40641C14.0203 2.38412 14.0513 2.36785 14.0594 2.33325C14.0654 2.33325 14.0713 2.33325 14.0774 2.33325H14.0773Z" fill="black" fill-opacity="0.85"/>
<path d="M2.83352 13.5421C2.84942 13.5518 2.86165 13.5444 2.87288 13.5334C2.89211 13.5146 2.91126 13.4956 2.93031 13.4766C3.71951 12.6873 4.5087 11.8981 5.29789 11.1088C5.3085 11.0982 5.31911 11.0877 5.32962 11.0771C5.38876 11.0177 5.38013 11.0182 5.43909 11.0771C6.24725 11.8854 7.0554 12.6938 7.86347 13.5023C7.92737 13.5662 7.92818 13.5534 7.86383 13.6178C7.05765 14.4239 6.25147 15.23 5.44502 16.0359C5.37681 16.1041 5.39127 16.105 5.32297 16.0368C4.68809 15.4021 4.05348 14.7673 3.41878 14.1324C3.24739 13.961 3.07654 13.7891 2.90416 13.6186C2.88519 13.6 2.87306 13.5628 2.83334 13.5778V13.5419L2.83352 13.5421Z" fill="black" fill-opacity="0.85"/>
<path d="M18.4253 15.353C18.4654 15.3721 18.4831 15.3971 18.5041 15.418C19.3027 16.2153 20.1011 17.0129 20.8996 17.8104C20.908 17.8188 20.9168 17.8271 20.925 17.8357C20.9559 17.8679 20.9556 17.9003 20.9241 17.9331C20.9097 17.9482 20.8947 17.9629 20.8799 17.9777C18.6406 20.2172 16.4013 22.4567 14.162 24.6962C14.0649 24.7934 14.0781 24.7924 13.9836 24.698C11.7401 22.4542 9.49641 20.2103 7.25276 17.9666C7.19854 17.9123 7.19776 17.8589 7.25043 17.8063C8.04735 17.0115 8.84409 16.2165 9.64138 15.4221C9.7237 15.34 9.70114 15.3403 9.78239 15.4214C11.186 16.8246 12.5892 18.228 13.9926 19.6315C14.0462 19.6851 14.0997 19.6851 14.1533 19.6315C15.5524 18.2324 16.9515 16.8332 18.3505 15.4338C18.3758 15.4085 18.3993 15.3813 18.4253 15.3531V15.353Z" fill="black" fill-opacity="0.85"/>
<path d="M14.0729 10.9941C14.1026 11.0061 14.1197 11.0318 14.1405 11.0526C14.9536 11.8647 15.7663 12.6771 16.579 13.4895C16.5939 13.5044 16.6082 13.5197 16.6236 13.5338C16.6434 13.5518 16.6433 13.5683 16.6236 13.5862C16.6082 13.6003 16.5939 13.6157 16.579 13.6305C15.7663 14.4429 14.9536 15.2554 14.1405 16.0675C14.1197 16.0883 14.1026 16.1141 14.0731 16.1258C14.0436 16.1146 14.0269 16.0886 14.0063 16.068C13.1933 15.2558 12.3804 14.4435 11.5679 13.6308C11.4871 13.55 11.4874 13.57 11.5681 13.4893C12.3785 12.6787 13.1891 11.8684 14 11.0583C14.0227 11.0356 14.0413 11.0074 14.0729 10.9941Z" fill="black" fill-opacity="0.85"/>
<path d="M22.7807 11.0234C22.7943 11.0422 22.809 11.0695 22.83 11.0905C23.6272 11.8889 24.425 12.6868 25.2228 13.4847C25.2292 13.4911 25.2355 13.4973 25.2418 13.5037C25.2966 13.5599 25.2972 13.5605 25.2421 13.6157C24.4276 14.4306 23.6128 15.2453 22.7979 16.06C22.7875 16.0705 22.7759 16.0799 22.7653 16.0894C22.7339 16.0774 22.717 16.0517 22.6963 16.031C21.8962 15.2312 21.0963 14.4312 20.2967 13.631C20.2158 13.55 20.2162 13.5695 20.2964 13.4893C21.0961 12.689 21.8961 11.8891 22.6962 11.0894C22.717 11.0686 22.7342 11.0434 22.7808 11.0235L22.7807 11.0234Z" fill="black" fill-opacity="0.85"/>
</svg>
