<svg width="40" height="41" viewBox="0 0 40 41" fill="none" xmlns="http://www.w3.org/2000/svg">
<path opacity="0.8" d="M35.0677 12.4833L20.001 21.2L4.93437 12.4833C5.60104 11.25 6.56771 10.1667 7.65104 9.56668L16.551 4.63334C18.451 3.56668 21.551 3.56668 23.451 4.63334L32.351 9.56668C33.4344 10.1667 34.401 11.25 35.0677 12.4833Z" fill="#53006B"/>
<path opacity="0.6" d="M20.001 21.2V37.1667C18.751 37.1667 17.501 36.9 16.551 36.3667L7.65104 31.4333C5.63438 30.3167 3.98438 27.5167 3.98438 25.2167V15.7833C3.98438 14.7167 4.35104 13.55 4.93437 12.4833L20.001 21.2Z" fill="#53006B"/>
<path d="M36.0177 15.7833V25.2167C36.0177 27.5167 34.3677 30.3167 32.351 31.4333L23.451 36.3667C22.501 36.9 21.251 37.1667 20.001 37.1667V21.2L35.0677 12.4833C35.651 13.55 36.0177 14.7167 36.0177 15.7833Z" fill="#53006B"/>
</svg>
