<svg width="24" height="24" viewBox="0 0 24 24" fill="none" xmlns="http://www.w3.org/2000/svg">
<circle cx="12" cy="12" r="12" fill="#0052B4"/>
<path d="M21.5358 4.71411L14.25 11.9999L21.5358 19.2857C20.8887 20.1315 20.1315 20.8886 19.2858 21.5357L12 14.2499L4.71419 21.5357C3.86846 20.8886 3.11134 20.1315 2.46419 19.2857L9.75 11.9999L2.46419 4.71411C3.11134 3.86839 3.86846 3.11127 4.71419 2.46411L12 9.74993L19.2858 2.46411C20.1315 3.11127 20.8887 3.86839 21.5358 4.71411Z" fill="#EEEEEE"/>
<path d="M13.5 0.0929064C14.0107 0.156585 14.5113 0.252349 15 0.37812L15 9.00009L23.6219 9.00009C23.7477 9.48874 23.8435 9.98943 23.9072 10.5001L22.5 12.0001L23.9072 13.5001C23.8435 14.0107 23.7477 14.5114 23.6219 15.0001L15 15.0001L15 23.622C14.5113 23.7478 14.0107 23.8435 13.5 23.9072L12 22.5001L10.5 23.9072C9.98934 23.8435 9.48864 23.7478 9 23.622L9 15.0001L0.378055 15.0001C0.252284 14.5114 0.156519 14.0107 0.0928397 13.5001L1.5 12.0001L0.0928339 10.5001C0.156511 9.98943 0.252274 9.48874 0.378043 9.00009L9 9.00009L9 0.37812C9.48864 0.252349 9.98934 0.156585 10.5 0.0929065L12 1.50009L13.5 0.0929064Z" fill="#EEEEEE"/>
<path d="M13.5 0.0928396C13.0162 0.0325159 12.5236 0.000987459 12.0237 2.23626e-05L11.9763 2.23647e-05C11.4764 0.000987505 10.9837 0.032516 10.5 0.0928397L10.5 10.5L0.0928372 10.5C0.0315634 10.9914 -5.46741e-07 11.492 -5.24537e-07 12C-5.02331e-07 12.508 0.0315655 13.0086 0.092843 13.5L10.5 13.5L10.5 23.9072C10.9914 23.9684 11.492 24 12 24C12.508 24 13.0086 23.9684 13.5 23.9072L13.5 13.5L23.9072 13.5C23.9684 13.0086 24 12.508 24 12C24 11.492 23.9684 10.9914 23.9072 10.5L13.5 10.5L13.5 0.0928396Z" fill="#D80027"/>
<path fill-rule="evenodd" clip-rule="evenodd" d="M19.7023 2.79761C19.9738 3.02508 20.235 3.26434 20.4853 3.5146L15 8.99988V7.49988L19.7023 2.79761ZM2.79773 4.29761C3.0252 4.02613 3.26446 3.76486 3.51472 3.5146L9 8.99988H7.5L2.79773 4.29761ZM20.4853 20.4852C20.7355 20.2349 20.9748 19.9736 21.2023 19.7022L16.5 14.9999H15L20.4853 20.4852ZM4.29773 21.2022L9 16.4999V14.9999L3.51472 20.4852C3.76498 20.7354 4.02625 20.9747 4.29773 21.2022Z" fill="#D80027"/>
</svg>
