<svg width="40" height="41" viewBox="0 0 40 41" fill="none" xmlns="http://www.w3.org/2000/svg">
<path d="M8.33334 13.8333C11.0948 13.8333 13.3333 11.5948 13.3333 8.83334C13.3333 6.07192 11.0948 3.83334 8.33334 3.83334C5.57192 3.83334 3.33334 6.07192 3.33334 8.83334C3.33334 11.5948 5.57192 13.8333 8.33334 13.8333Z" fill="#53006B"/>
<path d="M31.6667 25.5C34.4281 25.5 36.6667 23.2614 36.6667 20.5C36.6667 17.7386 34.4281 15.5 31.6667 15.5C28.9052 15.5 26.6667 17.7386 26.6667 20.5C26.6667 23.2614 28.9052 25.5 31.6667 25.5Z" fill="#53006B"/>
<path d="M8.33334 37.1667C11.0948 37.1667 13.3333 34.9281 13.3333 32.1667C13.3333 29.4052 11.0948 27.1667 8.33334 27.1667C5.57192 27.1667 3.33334 29.4052 3.33334 32.1667C3.33334 34.9281 5.57192 37.1667 8.33334 37.1667Z" fill="#53006B"/>
<path opacity="0.6" d="M8.33334 28.4167C7.65001 28.4167 7.08334 27.85 7.08334 27.1667V13.8333C7.08334 13.15 7.65001 12.5833 8.33334 12.5833C9.01668 12.5833 9.58334 13.15 9.58334 13.8333C9.58334 17.4833 11.35 19.25 15 19.25H26.6667C27.35 19.25 27.9167 19.8167 27.9167 20.5C27.9167 21.1833 27.35 21.75 26.6667 21.75H15C12.7333 21.75 10.9167 21.1667 9.58334 20.0667V27.1667C9.58334 27.85 9.01668 28.4167 8.33334 28.4167Z" fill="#53006B"/>
</svg>
