<svg width="22" height="22" viewBox="0 0 22 22" fill="none" xmlns="http://www.w3.org/2000/svg">
<path fill-rule="evenodd" clip-rule="evenodd" d="M11.001 0.333496C8.10406 0.333496 7.7405 0.346163 6.60271 0.397941C5.46714 0.449942 4.69203 0.629721 4.0138 0.893502C3.31223 1.16595 2.71712 1.5304 2.12422 2.12351C1.53088 2.71641 1.16643 3.31153 0.893097 4.01287C0.628649 4.69132 0.448648 5.46666 0.397536 6.60178C0.346646 7.73957 0.333313 8.10336 0.333313 11.0003C0.333313 13.8972 0.346202 14.2596 0.397758 15.3974C0.449981 16.533 0.629761 17.3081 0.893319 17.9863C1.16599 18.6879 1.53044 19.283 2.12355 19.8759C2.71623 20.4693 3.31134 20.8346 4.01246 21.107C4.69114 21.3708 5.46648 21.5506 6.60182 21.6026C7.73961 21.6544 8.10295 21.6671 10.9996 21.6671C13.8968 21.6671 14.2592 21.6544 15.397 21.6026C16.5326 21.5506 17.3086 21.3708 17.9873 21.107C18.6886 20.8346 19.2828 20.4693 19.8755 19.8759C20.4689 19.283 20.8333 18.6879 21.1066 17.9866C21.3689 17.3081 21.5489 16.5328 21.6022 15.3977C21.6533 14.2599 21.6666 13.8972 21.6666 11.0003C21.6666 8.10336 21.6533 7.7398 21.6022 6.60201C21.5489 5.46644 21.3689 4.69132 21.1066 4.01309C20.8333 3.31153 20.4689 2.71641 19.8755 2.12351C19.2822 1.53018 18.6888 1.16573 17.9866 0.893502C17.3066 0.629721 16.531 0.449942 15.3955 0.397941C14.2577 0.346163 13.8955 0.333496 10.9976 0.333496H11.001ZM10.0441 2.2556C10.2299 2.25531 10.4298 2.2554 10.6455 2.25549L11.001 2.2556C13.849 2.2556 14.1866 2.26582 15.3113 2.31693C16.3513 2.36449 16.9157 2.53827 17.2917 2.68427C17.7895 2.8776 18.1444 3.10872 18.5175 3.48205C18.8909 3.85539 19.122 4.21095 19.3158 4.70873C19.4618 5.08429 19.6358 5.64874 19.6831 6.68875C19.7342 7.81321 19.7453 8.15099 19.7453 10.9977C19.7453 13.8444 19.7342 14.1822 19.6831 15.3066C19.6355 16.3466 19.4618 16.9111 19.3158 17.2866C19.1224 17.7844 18.8909 18.1389 18.5175 18.512C18.1442 18.8853 17.7897 19.1164 17.2917 19.3098C16.9162 19.4564 16.3513 19.6298 15.3113 19.6773C14.1868 19.7284 13.849 19.7396 11.001 19.7396C8.15275 19.7396 7.81519 19.7284 6.69074 19.6773C5.65073 19.6293 5.08628 19.4556 4.71005 19.3096C4.21227 19.1162 3.85671 18.8851 3.48337 18.5118C3.11003 18.1384 2.87892 17.7838 2.68514 17.2858C2.53914 16.9102 2.36514 16.3457 2.3178 15.3057C2.26669 14.1813 2.25647 13.8435 2.25647 10.995C2.25647 8.14655 2.26669 7.81054 2.3178 6.68609C2.36536 5.64608 2.53914 5.08163 2.68514 4.70562C2.87848 4.20784 3.11003 3.85228 3.48337 3.47894C3.85671 3.10561 4.21227 2.87449 4.71005 2.68071C5.08605 2.53404 5.65073 2.36071 6.69074 2.31293C7.67475 2.26849 8.05609 2.25515 10.0441 2.25293V2.2556ZM16.6948 4.02673C15.9882 4.02673 15.4148 4.5994 15.4148 5.30629C15.4148 6.01297 15.9882 6.58631 16.6948 6.58631C17.4015 6.58631 17.9749 6.01297 17.9749 5.30629C17.9749 4.59962 17.4015 4.02628 16.6948 4.02628V4.02673ZM5.52317 11.0001C5.52317 7.97506 7.97574 5.52241 11.0008 5.5223C14.0259 5.5223 16.478 7.97499 16.478 11.0001C16.478 14.0253 14.0261 16.4769 11.001 16.4769C7.97586 16.4769 5.52317 14.0253 5.52317 11.0001ZM14.5566 10.9999C14.5566 9.03613 12.9646 7.44434 11.001 7.44434C9.03723 7.44434 7.44543 9.03613 7.44543 10.9999C7.44543 12.9635 9.03723 14.5555 11.001 14.5555C12.9646 14.5555 14.5566 12.9635 14.5566 10.9999Z" fill="black"/>
</svg>
