<svg width="20" height="16" viewBox="0 0 20 16" fill="none" xmlns="http://www.w3.org/2000/svg">
<path fill-rule="evenodd" clip-rule="evenodd" d="M19.8787 2.4C19.8787 2.4 11.9163 6.87752 10.2787 6.87752C8.71629 6.87752 0.666687 2.3128 0.666687 2.3128V1.6C0.666687 0.7168 1.38349 0 2.26829 0H18.2891C19.1747 0 19.8915 0.7168 19.8915 1.6L19.8787 2.4ZM0.679487 4.7998C0.678687 4.7998 8.71629 9.07732 10.2787 9.07732C11.9915 9.07732 19.8787 4.7998 19.8787 4.7998L19.8915 14.3998C19.8915 15.283 19.1747 15.9998 18.2891 15.9998H2.26829C1.38429 15.9998 0.666687 15.283 0.666687 14.3998L0.679487 4.7998Z" fill="black"/>
</svg>
