<svg width="24" height="24" viewBox="0 0 24 24" fill="none" xmlns="http://www.w3.org/2000/svg">
<path d="M23.6664 11.2733C23.4596 11.7878 23.0391 12.0861 22.5744 12.3304C21.7157 12.7824 20.7926 13.0506 19.8508 13.2656C18.5666 13.5586 17.2643 13.7303 15.9545 13.8502C15.5495 13.8874 15.1428 13.9074 14.7276 13.9358V21.9948H10.0432V13.9304C9.98831 13.9237 9.94863 13.9166 9.90866 13.9144C8.23826 13.8181 6.58193 13.6141 4.95094 13.2353C4.04805 13.0256 3.16092 12.7621 2.33994 12.3166C2.03794 12.1528 1.75509 11.9628 1.53049 11.6974C1.18459 11.2887 1.17699 10.8629 1.51895 10.452C1.84853 10.056 2.29181 9.82071 2.75113 9.61582C3.68273 9.20068 4.66414 8.9471 5.66019 8.74783C6.75756 8.5283 7.8659 8.38392 8.98129 8.29385C9.32662 8.26599 9.67168 8.23784 10.026 8.20914V5.9598H3.65571V5.77629C3.65571 4.3243 3.65571 2.8723 3.65543 1.42003C3.65543 1.3688 3.65093 1.31758 3.64867 1.26636C9.46847 1.26636 15.2883 1.26636 21.1081 1.26636V5.9598H14.7344V8.199C15.23 8.2401 15.7152 8.28063 16.2002 8.32059C17.4048 8.41966 18.5978 8.59528 19.7774 8.85928C20.6867 9.06305 21.5837 9.30848 22.4207 9.73065C22.9437 9.99437 23.4326 10.3006 23.6667 10.8798V11.2733H23.6664ZM14.7288 11.4599C13.154 11.5426 11.6016 11.5328 10.0319 11.4486V8.74023C9.96833 8.74023 9.92189 8.73742 9.87573 8.74051C9.29651 8.77935 8.71588 8.80525 8.13835 8.86182C6.9087 8.982 5.68299 9.13229 4.48345 9.44329C3.93969 9.5843 3.3979 9.73825 2.92141 10.0487C2.41677 10.3777 2.41818 10.7351 2.91691 11.0734C3.33739 11.3586 3.81614 11.5077 4.29967 11.6386C5.37255 11.9288 6.46654 12.1069 7.57179 12.2049C8.58838 12.2949 9.60638 12.3811 10.6258 12.421C12.7904 12.506 14.9531 12.4542 17.1104 12.2358C18.3032 12.1151 19.4875 11.9479 20.6476 11.638C21.0861 11.5207 21.5173 11.3799 21.9122 11.1486C21.9966 11.0991 22.0779 11.0419 22.1528 10.9792C22.486 10.6997 22.49 10.4056 22.1379 10.1438C21.9414 9.99774 21.7188 9.87531 21.4911 9.78497C20.2891 9.30791 19.0211 9.11822 17.7473 8.96849C17.0828 8.89052 16.4149 8.83705 15.7482 8.78076C15.4132 8.75262 15.0769 8.74276 14.729 8.72419V11.4599H14.7288Z" fill="black" fill-opacity="0.85"/>
</svg>
