<svg width="40" height="41" viewBox="0 0 40 41" fill="none" xmlns="http://www.w3.org/2000/svg">
<path opacity="0.6" d="M36.6667 20.5V28.8333C36.6667 33.8333 33.3333 37.1667 28.3333 37.1667H11.6667C6.66666 37.1667 3.33333 33.8333 3.33333 28.8333V20.5C3.33333 15.9667 6.06666 12.8 10.3167 12.2667C10.75 12.2 11.2 12.1667 11.6667 12.1667H28.3333C28.7667 12.1667 29.1833 12.1833 29.5833 12.25C33.8833 12.75 36.6667 15.9333 36.6667 20.5Z" fill="#53006B"/>
<path d="M29.5833 12.25C29.1833 12.1833 28.7667 12.1667 28.3333 12.1667H11.6667C11.2 12.1667 10.75 12.2 10.3167 12.2667C10.55 11.8 10.8833 11.3667 11.2833 10.9667L16.7 5.53334C18.9833 3.26668 22.6833 3.26668 24.9667 5.53334L27.8833 8.48338C28.95 9.53338 29.5167 10.8667 29.5833 12.25Z" fill="#53006B"/>
<path d="M36.6667 21.3333H31.6667C29.8333 21.3333 28.3333 22.8333 28.3333 24.6667C28.3333 26.5 29.8333 28 31.6667 28H36.6667" fill="#53006B"/>
</svg>
