<svg width="22" height="16" viewBox="0 0 22 16" fill="none" xmlns="http://www.w3.org/2000/svg">
<path fill-rule="evenodd" clip-rule="evenodd" d="M19.3346 1.12428C20.2526 1.37617 20.9755 2.11835 21.2208 3.06085C21.6666 4.76904 21.6666 8.33317 21.6666 8.33317C21.6666 8.33317 21.6666 11.8972 21.2208 13.6055C20.9755 14.548 20.2526 15.2902 19.3346 15.5422C17.6711 15.9998 11 15.9998 11 15.9998C11 15.9998 4.32883 15.9998 2.66519 15.5422C1.74725 15.2902 1.02434 14.548 0.77901 13.6055C0.333313 11.8972 0.333313 8.33317 0.333313 8.33317C0.333313 8.33317 0.333313 4.76904 0.77901 3.06085C1.02434 2.11835 1.74725 1.37617 2.66519 1.12428C4.32883 0.666504 11 0.666504 11 0.666504C11 0.666504 17.6711 0.666504 19.3346 1.12428ZM9 5.3335V12.0002L14.3333 8.66696L9 5.3335Z" fill="black"/>
</svg>
